# File created by Blade
# Date/Time:  Tue Jan 27 20:02:37 2015
# Frame Rate: 120.000 fps
#------------------------------------------------------
:FULLY-SPECIFIED
:DEGREES
3034
root 7.613547 33.892808 3.436057 22.498670 -26.527931 -30.721680
Spine 5.151428 24.192281 7.520507
Head -4.315226 -2.086897 13.207159
LeftShoulder -13.542908 -0.610290 31.334406
LeftArm -5.259989 -14.662485 -78.798095
LeftForeArm -46.105662 -0.000000 129.406979
LeftHand 8.644334 -0.000000 -44.103782
LeftHandThumb1 -26.253704 0.000000 33.147579
RightShoulder -10.849588 -3.422961 -19.851386
RightArm 35.900722 -56.630291 74.907335
RightForeArm -15.021249 -0.000000 21.452590
RightHand 15.767865 -0.000000 10.185506
RightHandThumb1 -24.326973 -0.000000 -32.862282
LeftUpLeg -2.476850 20.971010 14.541101
LeftLeg -4.561316 -0.000000 0.000000
LeftFoot -21.199774 27.224830 -17.662783
LeftToeBase 18.626031 -0.000000 -0.000000
RightUpLeg -3.743813 -45.850903 -26.394858
RightLeg 61.336855 -0.000000 -0.000000
RightFoot 28.395724 -25.471870 19.819801
RightToeBase 16.715063 -0.000000 -0.000000
3035
root 7.610711 33.895921 3.438011 22.444512 -26.436647 -30.765832
Spine 5.181899 24.068928 7.627333
Head -4.222813 -2.093195 13.275507
LeftShoulder -13.613712 -0.610194 31.334470
LeftArm -5.253421 -14.693180 -78.817859
LeftForeArm -46.137685 -0.000000 129.318944
LeftHand 8.636592 -0.000000 -44.133607
LeftHandThumb1 -26.253704 0.000000 33.147579
RightShoulder -10.809323 -3.315219 -19.855849
RightArm 35.531692 -56.638044 75.221914
RightForeArm -15.107888 -0.000000 21.460042
RightHand 15.804929 -0.000000 10.193290
RightHandThumb1 -24.326973 -0.000000 -32.862282
LeftUpLeg -2.399111 21.038316 14.607956
LeftLeg -4.656135 -0.000000 0.000000
LeftFoot -21.019582 27.240044 -17.420878
LeftToeBase 18.489313 -0.000000 -0.000000
RightUpLeg -4.078022 -46.071257 -26.260417
RightLeg 63.169089 -0.000000 -0.000000
RightFoot 27.983469 -25.707324 20.050120
RightToeBase 16.734899 -0.000000 -0.000000
3036
root 7.613795 33.889878 3.448095 22.296084 -26.326032 -30.684763
Spine 5.237822 23.929568 7.661943
Head -4.124409 -2.141380 13.323198
LeftShoulder -13.627547 -0.654968 31.347058
LeftArm -5.297135 -14.763568 -78.821908
LeftForeArm -46.162716 0.000000 129.232739
LeftHand 8.694399 -0.000000 -44.159846
LeftHandThumb1 -26.253704 0.000000 33.147579
RightShoulder -10.789435 -3.446158 -19.842425
RightArm 35.486362 -56.545804 75.279090
RightForeArm -15.139741 -0.000000 21.496794
RightHand 15.785541 0.000000 10.312237
RightHandThumb1 -24.326973 -0.000000 -32.862282
LeftUpLeg -2.290185 21.070552 14.539550
LeftLeg -4.803033 -0.000000 0.000000
LeftFoot -20.831885 27.318848 -17.190708
LeftToeBase 18.454084 -0.000000 -0.000000
RightUpLeg -4.258801 -46.440860 -26.450194
RightLeg 65.088022 -0.000000 -0.000000
RightFoot 27.547885 -25.798457 20.290837
RightToeBase 16.852642 -0.000000 -0.000000
3037
root 7.612641 33.888157 3.455655 22.174008 -26.201349 -30.648902
Spine 5.281602 23.843999 7.720705
Head -4.039768 -2.217955 13.398512
LeftShoulder -13.601889 -0.680854 31.364787
LeftArm -5.305564 -14.874462 -78.850866
LeftForeArm -46.235250 -0.000000 129.144224
LeftHand 8.691809 -0.000000 -44.271224
LeftHandThumb1 -26.253704 0.000000 33.147579
RightShoulder -10.782152 -3.494573 -19.818892
RightArm 35.332982 -56.505060 75.398436
RightForeArm -15.034968 -0.000000 21.496967
RightHand 15.846269 0.000000 10.313864
RightHandThumb1 -24.326973 -0.000000 -32.862282
LeftUpLeg -2.180915 21.112168 14.540459
LeftLeg -4.929372 -0.000000 0.000000
LeftFoot -20.602508 27.326332 -16.889680
LeftToeBase 18.267849 -0.000000 -0.000000
RightUpLeg -4.442915 -46.716804 -26.531785
RightLeg 66.931137 -0.000000 -0.000000
RightFoot 27.492833 -25.653362 20.260144
RightToeBase 16.877632 -0.000000 -0.000000
3038
root 7.609302 33.887712 3.463223 22.078614 -26.037511 -30.604497
Spine 5.268472 23.737851 7.753915
Head -3.946807 -2.309025 13.506698
LeftShoulder -13.599765 -0.697687 31.379741
LeftArm -5.299868 -14.940914 -78.845197
LeftForeArm -46.355336 0.000000 129.050977
LeftHand 8.692993 -0.000000 -44.362340
LeftHandThumb1 -26.253704 0.000000 33.147579
RightShoulder -10.778267 -3.583102 -19.765739
RightArm 35.242618 -56.461857 75.460917
RightForeArm -14.959026 -0.000000 21.492400
RightHand 15.884761 -0.000000 10.411300
RightHandThumb1 -24.326973 -0.000000 -32.862282
LeftUpLeg -2.130684 21.140639 14.539154
LeftLeg -5.040529 -0.000000 0.000000
LeftFoot -20.431903 27.219767 -16.697427
LeftToeBase 18.326330 -0.000000 -0.000000
RightUpLeg -4.588539 -47.029590 -26.617171
RightLeg 68.740021 -0.000000 -0.000000
RightFoot 27.614371 -25.412701 20.269885
RightToeBase 16.568144 -0.000000 -0.000000
3039
root 7.605695 33.887688 3.468035 21.998716 -25.875706 -30.573280
Spine 5.257040 23.656295 7.790281
Head -3.885347 -2.391112 13.611034
LeftShoulder -13.601729 -0.715089 31.389478
LeftArm -5.290374 -14.988099 -78.821223
LeftForeArm -46.516161 -0.000000 128.966563
LeftHand 8.744951 -0.000000 -44.436730
LeftHandThumb1 -26.253704 0.000000 33.147579
RightShoulder -10.761767 -3.609457 -19.726243
RightArm 34.996131 -56.391156 75.670401
RightForeArm -14.967190 0.000000 21.488345
RightHand 15.893783 -0.000000 10.527466
RightHandThumb1 -24.326973 -0.000000 -32.862282
LeftUpLeg -2.089553 21.173342 14.545675
LeftLeg -5.148160 -0.000000 0.000000
LeftFoot -20.245267 27.172640 -16.468235
LeftToeBase 18.296614 -0.000000 -0.000000
RightUpLeg -4.763328 -47.292740 -26.657402
RightLeg 70.557197 -0.000000 -0.000000
RightFoot 27.904292 -25.131594 20.339076
RightToeBase 16.358918 -0.000000 -0.000000
3040
root 7.599843 33.887986 3.472539 21.924030 -25.693277 -30.541398
Spine 5.231586 23.588189 7.822086
Head -3.841447 -2.472774 13.716190
LeftShoulder -13.571147 -0.769951 31.412726
LeftArm -5.331961 -15.068370 -78.769953
LeftForeArm -46.619410 -0.000000 128.929619
LeftHand 8.705378 -0.000000 -44.461269
LeftHandThumb1 -26.253704 0.000000 33.147579
RightShoulder -10.757442 -3.648986 -19.690804
RightArm 34.805535 -56.354833 75.836299
RightForeArm -14.969109 -0.000000 21.456464
RightHand 15.910838 -0.000000 10.470889
RightHandThumb1 -24.326973 -0.000000 -32.862282
LeftUpLeg -2.056254 21.171554 14.562774
LeftLeg -5.257801 -0.000000 0.000000
LeftFoot -20.054655 27.134302 -16.249858
LeftToeBase 18.075778 -0.000000 -0.000000
RightUpLeg -4.895411 -47.590418 -26.710194
RightLeg 72.359700 -0.000000 -0.000000
RightFoot 28.361543 -24.722948 20.248687
RightToeBase 15.952486 -0.000000 -0.000000
